<?xml version="1.0" encoding="iso-8859-1"?>
<!-- Generator: Adobe Illustrator 18.1.1, SVG Export Plug-In . SVG Version: 6.00 Build 0)  -->
<svg version="1.1" id="Capa_1" xmlns="http://www.w3.org/2000/svg" xmlns:xlink="http://www.w3.org/1999/xlink" x="0px" y="0px"
	 viewBox="0 0 611.998 611.998" style="enable-background:new 0 0 611.998 611.998;" xml:space="preserve">
<g>
	<g>
		<path d="M138.861,377.105C70.742,467.32,28.529,543.146,13.398,602.473c-0.664,2.615,0.095,5.383,2.001,7.29
			c1.903,1.903,4.673,2.663,7.282,2.001c59.334-15.132,135.159-57.347,225.375-125.466c66.904-50.525,117.243-97.292,117.745-97.759
			L236.624,259.359C236.153,259.858,189.385,310.198,138.861,377.105z"/>
		<path d="M594.792,139.757L485.404,30.373c-5.399-5.396-14.144-5.396-19.539-0.004L266.062,230.174l128.926,128.922
			l199.802-199.801C600.183,153.901,600.186,145.157,594.792,139.757z"/>
		<path d="M443.325,9.641c-12.857-12.857-33.697-12.853-46.552,0l-141.67,141.67c-12.857,12.857-12.86,33.697,0,46.554
			L443.325,9.641z"/>
	</g>
</g>
<g>
</g>
<g>
</g>
<g>
</g>
<g>
</g>
<g>
</g>
<g>
</g>
<g>
</g>
<g>
</g>
<g>
</g>
<g>
</g>
<g>
</g>
<g>
</g>
<g>
</g>
<g>
</g>
<g>
</g>
</svg>
