<svg id="Capa_1" enable-background="new 0 0 512 512" height="512" viewBox="0 0 512 512" width="512" xmlns="http://www.w3.org/2000/svg"><g><g><g fill="#d8ecfe"><path d="m183.885 309.109h-183.885v51.703c0 2.845 2.306 5.151 5.151 5.151h178.734z"/><path d="m328.115 169.706c-11.81 6.631-19.321 18.596-20.133 32.125l-.064 1.06h.994c.48-14.075 8.527-26.262 20.203-32.595v-101.727c0-1.135-.378-2.175-1-3.026z"/></g><path d="m42.753 360.813v-22.776h-42.753v22.776c0 2.845 2.306 5.151 5.151 5.151h42.753c-2.845 0-5.151-2.307-5.151-5.151z" fill="#c4e2ff"/><g fill="#fff"><path d="m328.115 169.706c-11.81 6.631-19.321 18.596-20.133 32.125l-.064 1.06h.994c.48-14.075 8.527-26.262 20.203-32.595v-134.805h-1z"/><path d="m0 309.109h183.885v28.927h-183.885z"/></g><path d="m0 310.109h42.753v27.927h-42.753z" fill="#eaf6ff"/><path d="m329.115 170.296v-157.581c0-2.845-2.306-5.151-5.151-5.151h-318.813c-2.845 0-5.151 2.306-5.151 5.151v297.395h183.885v-103.068c0-2.289 1.862-4.151 4.151-4.151h120.877c.479-14.075 8.527-26.262 20.202-32.595z" fill="#d8ecfe"/><path d="m26.148 48.873c0-9.523 6.071-17.654 14.545-20.73v-20.579h-35.542c-2.845 0-5.151 2.306-5.151 5.151v297.395h42.753v-239.873c-9.533-2.429-16.605-11.086-16.605-21.364z" fill="#c4e2ff"/><g><g><g><g><path d="m275.103 137.246h-153.6c-4.142 0-7.5-3.358-7.5-7.5s3.358-7.5 7.5-7.5h153.6c4.142 0 7.5 3.358 7.5 7.5s-3.358 7.5-7.5 7.5z" fill="#685e68"/></g></g><g><g><path d="m275.103 177.973h-153.6c-4.142 0-7.5-3.358-7.5-7.5s3.358-7.5 7.5-7.5h153.6c4.142 0 7.5 3.358 7.5 7.5s-3.358 7.5-7.5 7.5z" fill="#685e68"/></g></g><g fill="#685e68"><path d="m183.885 207.042c0-1.375.679-2.586 1.712-3.342h-64.094c-4.142 0-7.5 3.358-7.5 7.5s3.358 7.5 7.5 7.5h62.382z"/><path d="m183.885 244.427h-62.382c-4.142 0-7.5 3.358-7.5 7.5s3.358 7.5 7.5 7.5h62.382z"/></g></g><g><g><g><path d="m84.267 137.246h-30.255c-4.142 0-7.5-3.358-7.5-7.5s3.358-7.5 7.5-7.5h30.254c4.142 0 7.5 3.358 7.5 7.5s-3.357 7.5-7.499 7.5z" fill="#685e68"/></g></g><g><g><path d="m84.267 177.973h-30.255c-4.142 0-7.5-3.358-7.5-7.5s3.358-7.5 7.5-7.5h30.254c4.142 0 7.5 3.358 7.5 7.5s-3.357 7.5-7.499 7.5z" fill="#685e68"/></g></g><g><g><path d="m84.267 218.7h-30.255c-4.142 0-7.5-3.358-7.5-7.5s3.358-7.5 7.5-7.5h30.254c4.142 0 7.5 3.358 7.5 7.5s-3.357 7.5-7.499 7.5z" fill="#685e68"/></g></g><g><g><path d="m84.267 259.427h-30.255c-4.142 0-7.5-3.358-7.5-7.5s3.358-7.5 7.5-7.5h30.254c4.142 0 7.5 3.358 7.5 7.5.001 4.142-3.357 7.5-7.499 7.5z" fill="#685e68"/></g></g></g></g><g><g><g><g><circle cx="280.921" cy="48.873" fill="#8ac9fe" r="14.545"/></g></g><g><g><circle cx="48.194" cy="48.873" fill="#8ac9fe" r="14.545"/></g></g><g><g><circle cx="106.376" cy="48.873" fill="#8ac9fe" r="14.545"/></g></g><g><g><circle cx="164.558" cy="48.873" fill="#8ac9fe" r="14.545"/></g></g><g><g><circle cx="222.739" cy="48.873" fill="#8ac9fe" r="14.545"/></g></g><g><g><circle cx="280.921" cy="48.873" fill="#8ac9fe" r="14.545"/></g></g></g></g></g><g><g><path d="m506.849 201.891h-120.92c.046.771.077 1.545.077 2.327 0 21.264-17.299 38.563-38.563 38.563s-38.563-17.299-38.563-38.563c0-.782.031-1.557.077-2.327h-120.92c-2.845 0-5.151 2.306-5.151 5.151v292.244c0 2.845 2.306 5.151 5.151 5.151h214.776c.746 0 1.468-.175 2.134-.479l1-2.252v-99.172c0-2.289 1.862-4.151 4.151-4.151h99.189l2.236-1c.304-.666.479-1.388.479-2.134v-188.207c-.002-2.845-2.308-5.151-5.153-5.151z" fill="#fed402"/><g><path d="m226.125 499.285v-292.243c0-2.845 2.306-5.151 5.151-5.151h-43.24c-2.845 0-5.151 2.306-5.151 5.151v292.244c0 2.845 2.306 5.151 5.151 5.151h43.24c-2.845-.001-5.151-2.307-5.151-5.152z" fill="#fac600"/></g><g><path d="m410.096 397.382c-2.845 0-5.151 2.306-5.151 5.151v101.425c.554-.253 1.07-.591 1.509-1.03l104.037-104.038c.439-.439.777-.955 1.03-1.509h-101.425z" fill="#fee97d"/></g></g><g><g><path d="m359.018 404.882h-114.865c-4.142 0-7.5-3.358-7.5-7.5s3.358-7.5 7.5-7.5h114.865c4.142 0 7.5 3.358 7.5 7.5s-3.358 7.5-7.5 7.5z" fill="#685e68"/></g><g><path d="m359.018 439.908h-114.865c-4.142 0-7.5-3.358-7.5-7.5s3.358-7.5 7.5-7.5h114.865c4.142 0 7.5 3.358 7.5 7.5s-3.358 7.5-7.5 7.5z" fill="#685e68"/></g></g><g><circle cx="347.442" cy="204.218" fill="#fe6c55" r="39.564"/></g><g><path d="m340.475 204.218c0-16.038 9.548-29.837 23.266-36.049-4.971-2.251-10.486-3.515-16.298-3.515-21.85 0-39.564 17.713-39.564 39.564s17.713 39.564 39.564 39.564c5.813 0 11.327-1.264 16.298-3.515-13.718-6.212-23.266-20.011-23.266-36.049z" fill="#fd544d"/></g><g><g><g><path d="m326.839 287.194h-42.237c-4.142 0-7.5-3.358-7.5-7.5s3.358-7.5 7.5-7.5h42.237c4.142 0 7.5 3.358 7.5 7.5s-3.358 7.5-7.5 7.5z" fill="#685e68"/></g><g><path d="m326.839 322.22h-42.237c-4.142 0-7.5-3.358-7.5-7.5s3.358-7.5 7.5-7.5h42.237c4.142 0 7.5 3.358 7.5 7.5s-3.358 7.5-7.5 7.5z" fill="#685e68"/></g><g><path d="m326.839 357.247h-42.237c-4.142 0-7.5-3.358-7.5-7.5s3.358-7.5 7.5-7.5h42.237c4.142 0 7.5 3.358 7.5 7.5s-3.358 7.5-7.5 7.5z" fill="#685e68"/></g></g><g><g><path d="m458.702 287.194h-99.928c-4.142 0-7.5-3.358-7.5-7.5s3.358-7.5 7.5-7.5h99.928c4.142 0 7.5 3.358 7.5 7.5s-3.358 7.5-7.5 7.5z" fill="#685e68"/></g><g><path d="m458.702 322.22h-99.928c-4.142 0-7.5-3.358-7.5-7.5s3.358-7.5 7.5-7.5h99.928c4.142 0 7.5 3.358 7.5 7.5s-3.358 7.5-7.5 7.5z" fill="#685e68"/></g><g><path d="m458.702 357.247h-99.928c-4.142 0-7.5-3.358-7.5-7.5s3.358-7.5 7.5-7.5h99.928c4.142 0 7.5 3.358 7.5 7.5s-3.358 7.5-7.5 7.5z" fill="#685e68"/></g></g></g></g><g fill="#60b7ff"><path d="m48.194 70.918c12.156 0 22.045-9.89 22.045-22.045 0-9.523-6.071-17.654-14.545-20.73v-20.579h-15v20.579c-8.474 3.076-14.545 11.207-14.545 20.73-.001 12.155 9.889 22.045 22.045 22.045zm0-29.091c3.885 0 7.045 3.161 7.045 7.045s-3.161 7.045-7.045 7.045-7.045-3.161-7.045-7.045 3.16-7.045 7.045-7.045z"/><path d="m273.421 7.564v20.579c-8.474 3.076-14.545 11.207-14.545 20.73 0 12.156 9.89 22.045 22.045 22.045s22.045-9.89 22.045-22.045c0-9.523-6.071-17.654-14.545-20.73v-20.579zm7.5 48.354c-3.885 0-7.045-3.161-7.045-7.045s3.161-7.045 7.045-7.045 7.045 3.161 7.045 7.045-3.16 7.045-7.045 7.045z"/><path d="m98.876 28.143c-8.475 3.075-14.546 11.206-14.546 20.73 0 12.156 9.89 22.045 22.046 22.045s22.045-9.89 22.045-22.045c0-9.523-6.071-17.654-14.545-20.73v-20.579h-15zm7.5 13.684c3.885 0 7.045 3.161 7.045 7.045s-3.161 7.045-7.045 7.045c-3.885 0-7.046-3.161-7.046-7.045s3.161-7.045 7.046-7.045z"/><path d="m215.239 28.143c-8.474 3.076-14.545 11.207-14.545 20.73 0 12.156 9.89 22.045 22.045 22.045s22.045-9.89 22.045-22.045c0-9.523-6.071-17.654-14.545-20.73v-20.579h-15zm7.5 13.684c3.885 0 7.045 3.161 7.045 7.045s-3.161 7.045-7.045 7.045-7.045-3.161-7.045-7.045 3.16-7.045 7.045-7.045z"/><path d="m157.058 28.143c-8.474 3.076-14.545 11.207-14.545 20.73 0 12.156 9.89 22.045 22.045 22.045s22.045-9.89 22.045-22.045c0-9.523-6.071-17.654-14.545-20.73v-20.579h-15zm7.5 13.684c3.885 0 7.045 3.161 7.045 7.045s-3.161 7.045-7.045 7.045-7.045-3.161-7.045-7.045 3.16-7.045 7.045-7.045z"/></g><g><g><path d="m244.153 334.582c-4.142 0-7.5-3.358-7.5-7.5v-47.388c0-4.142 3.358-7.5 7.5-7.5s7.5 3.358 7.5 7.5v47.388c0 4.143-3.358 7.5-7.5 7.5z" fill="#685e68"/></g><g><circle cx="244.153" cy="349.231" fill="#685e68" r="7.5"/></g></g></g></svg>